<?xml version="1.0" encoding="UTF-8" standalone="no"?><!-- Generator: Gravit.io --><svg xmlns="http://www.w3.org/2000/svg" xmlns:xlink="http://www.w3.org/1999/xlink" style="isolation:isolate" viewBox="0 0 250 250" width="250pt" height="250pt"><defs><clipPath id="_clipPath_mcBgTfFA9sexDns9A33kFiDLPrO1Khhy"><rect width="250" height="250"/></clipPath></defs><g clip-path="url(#_clipPath_mcBgTfFA9sexDns9A33kFiDLPrO1Khhy)"><path d=" M 190.032 236.524 C 189.378 244.067 183.041 250 175.33 250 L 72.245 250 C 64.107 250 57.5 243.393 57.5 235.255 L 57.5 14.745 C 57.5 14.059 57.547 13.384 57.654 12.73 L 190.032 236.524 L 190.032 236.524 Z " fill="rgb(103,103,104)"/><path d=" M 190.032 236.524 C 190.057 236.104 190.075 235.681 190.075 235.255 L 190.075 14.745 C 190.075 6.607 183.468 0 175.33 0 L 72.245 0 C 64.793 0 58.625 5.54 57.654 12.73 L 190.032 236.524 L 190.032 236.524 Z " fill="rgb(157,157,166)"/><rect x="190.075" y="84" width="2.425" height="49" transform="matrix(1,0,0,1,0,0)" fill="rgb(103,103,104)"/><rect x="190.075" y="48" width="2.425" height="22" transform="matrix(1,0,0,1,0,0)" fill="rgb(103,103,104)"/><path d=" M 173.751 209 L 65.584 209 L 65.584 26.135 L 173.751 209 L 173.751 209 Z " fill="rgb(255,255,255)"/><path d=" M 173.751 209 L 181.991 209 L 181.991 22 L 65.584 22 L 65.584 26.135 L 173.751 209 L 173.751 209 Z " fill="rgb(255,255,255)"/><circle vector-effect="non-scaling-stroke" cx="123.7874251497006" cy="230.5" r="13.5" fill="rgb(62,62,62)"/><path d=" M 68.462 31 L 65.584 31 L 65.584 26.135 L 68.462 31 L 68.462 31 Z " fill="rgb(157,157,166)"/><path d=" M 68.462 31 L 181.991 31 L 181.991 22 L 65.584 22 L 65.584 26.135 L 68.462 31 L 68.462 31 Z " fill="rgb(179,179,181)"/><path d=" M 91.531 70 L 81 70 C 76.585 70 73 66.415 73 62 L 73 46 C 73 44.238 73.571 42.609 74.553 41.298 L 91.531 70 L 91.531 70 Z " fill="rgb(91,120,200)" fill-opacity="0.72"/><path d=" M 91.531 70 L 102.287 70 C 106.703 70 110.287 66.415 110.287 62 L 110.287 46 C 110.287 41.585 106.703 38 102.287 38 L 81 38 C 78.346 38 75.993 39.295 74.553 41.298 L 91.531 70 L 91.531 70 Z " fill="rgb(91,120,200)" fill-opacity="0.62"/><path d="M 128.787 38 L 169 38 C 171.76 38 174 40.24 174 43 L 174 43 C 174 45.76 171.76 48 169 48 L 128.787 48 C 126.028 48 123.787 45.76 123.787 43 L 123.787 43 C 123.787 40.24 126.028 38 128.787 38 Z" style="stroke:none;fill:#EBEBEB;stroke-miterlimit:10;"/><path d="M 128.787 60 L 169 60 C 171.76 60 174 62.24 174 65 L 174 65 C 174 67.76 171.76 70 169 70 L 128.787 70 C 126.028 70 123.787 67.76 123.787 65 L 123.787 65 C 123.787 62.24 126.028 60 128.787 60 Z" style="stroke:none;fill:#EBEBEB;stroke-miterlimit:10;"/><path d=" M 104.544 92 L 78.575 92 C 75.815 92 73.575 89.76 73.575 87 L 73.575 87 C 73.575 84.24 75.815 82 78.575 82 L 98.629 82 L 104.544 92 L 104.544 92 Z " fill="rgb(215,215,215)"/><path d=" M 104.544 92 L 169 92 C 171.76 92 174 89.76 174 87 L 174 87 C 174 84.24 171.76 82 169 82 L 98.629 82 L 104.544 92 L 104.544 92 Z " fill="rgb(235,235,235)"/><path d=" M 117.557 114 L 78 114 C 75.24 114 73 111.76 73 109 L 73 109 C 73 106.24 75.24 104 78 104 L 111.642 104 L 117.557 114 L 117.557 114 Z " fill="rgb(215,215,215)"/><path d=" M 117.557 114 L 168.425 114 C 171.185 114 173.425 111.76 173.425 109 L 173.425 109 C 173.425 106.24 171.185 104 168.425 104 L 111.642 104 L 117.557 114 L 117.557 114 Z " fill="rgb(235,235,235)"/><path d=" M 130.57 136 L 78.575 136 C 75.815 136 73.575 133.76 73.575 131 L 73.575 131 C 73.575 128.24 75.815 126 78.575 126 L 124.655 126 L 130.57 136 L 130.57 136 Z " fill="rgb(215,215,215)"/><path d=" M 130.57 136 L 169 136 C 171.76 136 174 133.76 174 131 L 174 131 C 174 128.24 171.76 126 169 126 L 124.655 126 L 130.57 136 L 130.57 136 Z " fill="rgb(235,235,235)"/><path d=" M 143.584 158 L 78.575 158 C 75.815 158 73.575 155.76 73.575 153 L 73.575 153 C 73.575 150.24 75.815 148 78.575 148 L 137.668 148 L 143.584 158 L 143.584 158 Z " fill="rgb(215,215,215)"/><path d=" M 143.584 158 L 169 158 C 171.76 158 174 155.76 174 153 L 174 153 C 174 150.24 171.76 148 169 148 L 137.668 148 L 143.584 158 L 143.584 158 Z " fill="rgb(235,235,235)"/><path d=" M 156.597 180 L 78 180 C 75.24 180 73 177.76 73 175 L 73 175 C 73 172.24 75.24 170 78 170 L 150.682 170 L 156.597 180 L 156.597 180 Z " fill="rgb(215,215,215)"/><path d=" M 156.597 180 L 168.425 180 C 171.185 180 173.425 177.76 173.425 175 L 173.425 175 C 173.425 172.24 171.185 170 168.425 170 L 150.682 170 L 156.597 180 L 156.597 180 Z " fill="rgb(235,235,235)"/><path d=" M 169.59 201.967 C 169.397 201.988 169.2 202 169 202 L 78.575 202 C 75.815 202 73.575 199.76 73.575 197 L 73.575 197 C 73.575 194.24 75.815 192 78.575 192 L 163.695 192 L 169.59 201.967 L 169.59 201.967 Z " fill="rgb(215,215,215)"/><path d=" M 169.59 201.967 C 172.072 201.673 174 199.56 174 197 L 174 197 C 174 194.24 171.76 192 169 192 L 163.695 192 L 169.59 201.967 L 169.59 201.967 Z " fill="rgb(235,235,235)"/></g></svg>