<svg width="84" height="92" viewBox="0 0 84 92" fill="none" xmlns="http://www.w3.org/2000/svg">
<g filter="url(#filter0_d)">
<path d="M71.1211 7.38281H60.8345C60.6339 5.99405 59.4393 4.92188 57.9961 4.92188H53.6484V2.87109C53.6484 1.28815 52.3603 0 50.7773 0H40.4414C38.8585 0 37.5703 1.28815 37.5703 2.87109V4.92188H33.2227C31.7794 4.92188 30.5842 5.99405 30.3842 7.38281H20.0977C17.6098 7.38281 15.5859 9.40668 15.5859 11.8945V27.135L13.1045 24.6536C12.2803 23.8294 11.0518 23.5846 9.97577 24.0313C8.89911 24.4767 8.20312 25.5181 8.20312 26.6839V68.4961C8.20312 70.079 9.49127 71.3672 11.0742 71.3672H15.5859V79.4883C15.5859 81.9761 17.6098 84 20.0977 84H71.1211C73.5667 84 75.6328 81.8589 75.6328 79.3242V11.8945C75.6328 9.40668 73.6089 7.38281 71.1211 7.38281ZM40.0312 2.87109C40.0312 2.64487 40.2152 2.46094 40.4414 2.46094H50.7773C51.0036 2.46094 51.1875 2.64487 51.1875 2.87109V4.92188H40.0312V2.87109ZM33.2227 7.38281H57.9961C58.2223 7.38281 58.4062 7.56674 58.4062 7.79297V14.1914C58.4062 14.4176 58.2223 14.6016 57.9961 14.6016H33.2227C32.9964 14.6016 32.8125 14.4176 32.8125 14.1914V7.79297C32.8125 7.56674 32.9964 7.38281 33.2227 7.38281ZM10.6641 68.4961V26.6839C10.6641 26.3224 11.1043 26.1334 11.3645 26.3936L53.1768 68.2058C53.3453 68.3743 53.3049 68.5583 53.2658 68.6531C53.2267 68.7473 53.1255 68.9062 52.8871 68.9062H47.8242V66.6914C47.8242 66.0114 47.2731 65.4609 46.5938 65.4609C45.9144 65.4609 45.3633 66.0114 45.3633 66.6914V68.9062H42.9023V68.0039C42.9023 67.3239 42.3512 66.7734 41.6719 66.7734C40.9926 66.7734 40.4414 67.3239 40.4414 68.0039V68.9062H37.9805V68.0039C37.9805 67.3239 37.4293 66.7734 36.75 66.7734C36.0707 66.7734 35.5195 67.3239 35.5195 68.0039V68.9062H33.0586V66.6914C33.0586 66.0114 32.5074 65.4609 31.8281 65.4609C31.1488 65.4609 30.5977 66.0114 30.5977 66.6914V68.9062H28.1367V68.0039C28.1367 67.3239 27.5856 66.7734 26.9062 66.7734C26.2269 66.7734 25.6758 67.3239 25.6758 68.0039V68.9062H23.2148V68.0039C23.2148 67.3239 22.6637 66.7734 21.9844 66.7734C21.3051 66.7734 20.7539 67.3239 20.7539 68.0039V68.9062H18.293V66.6914C18.293 66.0114 17.7418 65.4609 17.0625 65.4609C16.3832 65.4609 15.832 66.0114 15.832 66.6914V68.9062H11.0742C10.848 68.9062 10.6641 68.7223 10.6641 68.4961ZM73.1719 79.3242C73.1719 80.5041 72.2138 81.5391 71.1211 81.5391H20.0977C18.9665 81.5391 18.0469 80.6194 18.0469 79.4883V71.3672H20.3438V77.0273C20.3438 78.1585 21.2634 79.0781 22.3945 79.0781H68.6602C69.7913 79.0781 70.7109 78.1585 70.7109 77.0273V14.1914C70.7109 13.0603 69.7913 12.1406 68.6602 12.1406H65.3789C64.6996 12.1406 64.1484 12.6911 64.1484 13.3711C64.1484 14.0511 64.6996 14.6016 65.3789 14.6016H68.25V76.6172H22.8047V71.3672H52.8871C54.0522 71.3672 55.0936 70.6718 55.539 69.5945C55.985 68.5179 55.7409 67.29 54.9167 66.4658L47.5954 59.1445H51.5977C52.277 59.1445 52.8281 58.594 52.8281 57.9141C52.8281 57.2341 52.277 56.6836 51.5977 56.6836H45.1992C45.1787 56.6836 45.1582 56.6855 45.1377 56.6868L42.6736 54.2227H51.5977C52.277 54.2227 52.8281 53.6721 52.8281 52.9922C52.8281 52.3122 52.277 51.7617 51.5977 51.7617H40.2126L22.8015 34.3506C22.8028 34.3301 22.8047 34.3096 22.8047 34.2891V14.6016H25.8398C26.5192 14.6016 27.0703 14.0511 27.0703 13.3711C27.0703 12.6911 26.5192 12.1406 25.8398 12.1406H22.3945C21.2634 12.1406 20.3438 13.0603 20.3438 14.1914V31.8929L18.0469 29.596V11.8945C18.0469 10.7634 18.9665 9.84375 20.0977 9.84375H30.3516V14.1914C30.3516 15.7744 31.6397 17.0625 33.2227 17.0625H57.9961C59.579 17.0625 60.8672 15.7744 60.8672 14.1914V9.84375H71.1211C72.2522 9.84375 73.1719 10.7634 73.1719 11.8945V79.3242Z" fill="#90C1D7"/>
<path d="M17.1445 63.9844H38.1926C38.8187 63.9844 39.3821 63.612 39.6269 63.0352C39.8723 62.4584 39.7493 61.7945 39.3148 61.344L18.2667 39.5166C17.8232 39.0565 17.1541 38.9136 16.5613 39.1526C15.9685 39.3916 15.5859 39.9588 15.5859 40.5978V62.4258C15.5859 63.2852 16.2851 63.9844 17.1445 63.9844ZM22.8047 61.5234V47.7678L36.0688 61.5234H22.8047ZM18.0469 42.8338L20.3438 45.2159V61.5234H18.0469V42.8338Z" fill="#90C1D7"/>
<path d="M58.1602 24.2812C56.5772 24.2812 55.2891 25.5694 55.2891 27.1523V31.9102C55.2891 33.4931 56.5772 34.7812 58.1602 34.7812H62.918C64.5009 34.7812 65.7891 33.4931 65.7891 31.9102V27.1523C65.7891 25.5694 64.5009 24.2812 62.918 24.2812H58.1602ZM63.3281 27.1523V31.9102C63.3281 32.1364 63.1442 32.3203 62.918 32.3203H58.1602C57.9339 32.3203 57.75 32.1364 57.75 31.9102V27.1523C57.75 26.9261 57.9339 26.7422 58.1602 26.7422H62.918C63.1442 26.7422 63.3281 26.9261 63.3281 27.1523Z" fill="#90C1D7"/>
<path d="M51.5977 25.8398H26.4961C25.8168 25.8398 25.2656 26.3904 25.2656 27.0703C25.2656 27.7503 25.8168 28.3008 26.4961 28.3008H51.5977C52.277 28.3008 52.8281 27.7503 52.8281 27.0703C52.8281 26.3904 52.277 25.8398 51.5977 25.8398Z" fill="#90C1D7"/>
<path d="M51.5977 30.7617H33.0586C32.3793 30.7617 31.8281 31.3122 31.8281 31.9922C31.8281 32.6721 32.3793 33.2227 33.0586 33.2227H51.5977C52.277 33.2227 52.8281 32.6721 52.8281 31.9922C52.8281 31.3122 52.277 30.7617 51.5977 30.7617Z" fill="#90C1D7"/>
<path d="M62.918 37.2422H58.1602C56.5772 37.2422 55.2891 38.5303 55.2891 40.1133V44.8711C55.2891 46.454 56.5772 47.7422 58.1602 47.7422H62.918C64.5009 47.7422 65.7891 46.454 65.7891 44.8711V40.1133C65.7891 38.5303 64.5009 37.2422 62.918 37.2422ZM63.3281 44.8711C63.3281 45.0973 63.1442 45.2812 62.918 45.2812H58.1602C57.9339 45.2812 57.75 45.0973 57.75 44.8711V40.1133C57.75 39.8871 57.9339 39.7031 58.1602 39.7031H62.918C63.1442 39.7031 63.3281 39.8871 63.3281 40.1133V44.8711Z" fill="#90C1D7"/>
<path d="M51.5977 38.8008H36.3398C35.6605 38.8008 35.1094 39.3513 35.1094 40.0312C35.1094 40.7112 35.6605 41.2617 36.3398 41.2617H51.5977C52.277 41.2617 52.8281 40.7112 52.8281 40.0312C52.8281 39.3513 52.277 38.8008 51.5977 38.8008Z" fill="#90C1D7"/>
<path d="M51.5977 43.7227H42.9023C42.223 43.7227 41.6719 44.2732 41.6719 44.9531C41.6719 45.6331 42.223 46.1836 42.9023 46.1836H51.5977C52.277 46.1836 52.8281 45.6331 52.8281 44.9531C52.8281 44.2732 52.277 43.7227 51.5977 43.7227Z" fill="#90C1D7"/>
<path d="M62.918 50.2031H58.1602C56.5772 50.2031 55.2891 51.4913 55.2891 53.0742V57.832C55.2891 59.415 56.5772 60.7031 58.1602 60.7031H62.918C64.5009 60.7031 65.7891 59.415 65.7891 57.832V53.0742C65.7891 51.4913 64.5009 50.2031 62.918 50.2031ZM63.3281 57.832C63.3281 58.0583 63.1442 58.2422 62.918 58.2422H58.1602C57.9339 58.2422 57.75 58.0583 57.75 57.832V53.0742C57.75 52.848 57.9339 52.6641 58.1602 52.6641H62.918C63.1442 52.6641 63.3281 52.848 63.3281 53.0742V57.832Z" fill="#90C1D7"/>
</g>
<defs>
<filter id="filter0_d" x="-4" y="0" width="92" height="92" filterUnits="userSpaceOnUse" color-interpolation-filters="sRGB">
<feFlood flood-opacity="0" result="BackgroundImageFix"/>
<feColorMatrix in="SourceAlpha" type="matrix" values="0 0 0 0 0 0 0 0 0 0 0 0 0 0 0 0 0 0 127 0"/>
<feOffset dy="4"/>
<feGaussianBlur stdDeviation="2"/>
<feColorMatrix type="matrix" values="0 0 0 0 0.597708 0 0 0 0 0.844312 0 0 0 0 0.95 0 0 0 1 0"/>
<feBlend mode="normal" in2="BackgroundImageFix" result="effect1_dropShadow"/>
<feBlend mode="normal" in="SourceGraphic" in2="effect1_dropShadow" result="shape"/>
</filter>
</defs>
</svg>
