<svg width="84" height="92" viewBox="0 0 84 92" fill="none" xmlns="http://www.w3.org/2000/svg">
<g filter="url(#filter0_d)">
<path d="M68.0039 27.3984C69.135 27.3984 70.0547 26.4788 70.0547 25.3477V20.4258C70.0547 19.2946 69.135 18.375 68.0039 18.375H67.7578V6.15234C67.7578 2.75958 64.9982 0 61.6055 0H20.0977C16.7049 0 13.9453 2.75958 13.9453 6.15234V66.0076C13.9453 66.6876 14.4958 67.2381 15.1758 67.2381C15.8557 67.2381 16.4062 66.6876 16.4062 66.0076V6.15234C16.4062 4.11694 18.0623 2.46094 20.0977 2.46094H61.6055C63.6409 2.46094 65.2969 4.11694 65.2969 6.15234V77.8477C65.2969 79.8831 63.6409 81.5391 61.6055 81.5391H20.0977C18.0623 81.5391 16.4062 79.8831 16.4062 77.8477V71.7498C16.4062 71.0705 15.8557 70.5193 15.1758 70.5193C14.4958 70.5193 13.9453 71.0705 13.9453 71.7498V77.8477C13.9453 81.2404 16.7049 84 20.0977 84H61.6055C64.9982 84 67.7578 81.2404 67.7578 77.8477V39.7031H68.0039C69.135 39.7031 70.0547 38.7835 70.0547 37.6523V32.7305C70.0547 31.5993 69.135 30.6797 68.0039 30.6797H67.7578V27.3984H68.0039Z" fill="#90C1D7"/>
<path d="M44.2969 7.38281C44.9768 7.38281 45.5273 6.83167 45.5273 6.15234C45.5273 5.47302 44.9768 4.92188 44.2969 4.92188H37.4062C36.7263 4.92188 36.1758 5.47302 36.1758 6.15234C36.1758 6.83167 36.7263 7.38281 37.4062 7.38281H44.2969Z" fill="#90C1D7"/>
<path d="M50.0391 7.38281C50.719 7.38281 51.2695 6.83167 51.2695 6.15234C51.2695 5.47302 50.719 4.92188 50.0391 4.92188H49.2188C48.5388 4.92188 47.9883 5.47302 47.9883 6.15234C47.9883 6.83167 48.5388 7.38281 49.2188 7.38281H50.0391Z" fill="#90C1D7"/>
<path d="M32.4844 7.38281C33.1643 7.38281 33.7148 6.83167 33.7148 6.15234C33.7148 5.47302 33.1643 4.92188 32.4844 4.92188H31.6641C30.9841 4.92188 30.4336 5.47302 30.4336 6.15234C30.4336 6.83167 30.9841 7.38281 31.6641 7.38281H32.4844Z" fill="#90C1D7"/>
<path d="M18.8672 11.8945V72.1055C18.8672 73.2366 19.7868 74.1562 20.918 74.1562H60.7852C61.9163 74.1562 62.8359 73.2366 62.8359 72.1055V11.8945C62.8359 10.7634 61.9163 9.84375 60.7852 9.84375H20.918C19.7868 9.84375 18.8672 10.7634 18.8672 11.8945ZM60.375 12.3047V71.6953H21.3281V17.2266H55.8633C56.5432 17.2266 57.0938 16.6754 57.0938 15.9961C57.0938 15.3168 56.5432 14.7656 55.8633 14.7656H21.3281V12.3047H60.375Z" fill="#90C1D7"/>
<path d="M39.1289 76.6172C38.4489 76.6172 37.8984 77.1683 37.8984 77.8477C37.8984 78.527 38.4489 79.0781 39.1289 79.0781H42.5742C43.2542 79.0781 43.8047 78.527 43.8047 77.8477C43.8047 77.1683 43.2542 76.6172 42.5742 76.6172H39.1289Z" fill="#90C1D7"/>
<path d="M42.4922 61.8516H39.2109C38.0798 61.8516 37.1602 62.7712 37.1602 63.9023V67.1836C37.1602 68.3147 38.0798 69.2344 39.2109 69.2344H42.4922C43.6233 69.2344 44.543 68.3147 44.543 67.1836V63.9023C44.543 62.7712 43.6233 61.8516 42.4922 61.8516ZM42.082 66.7734H39.6211V64.3125H42.082V66.7734Z" fill="#90C1D7"/>
<path d="M52.3359 61.8516H49.0547C47.9236 61.8516 47.0039 62.7712 47.0039 63.9023V67.1836C47.0039 68.3147 47.9236 69.2344 49.0547 69.2344H52.3359C53.4671 69.2344 54.3867 68.3147 54.3867 67.1836V63.9023C54.3867 62.7712 53.4671 61.8516 52.3359 61.8516ZM51.9258 66.7734H49.4648V64.3125H51.9258V66.7734Z" fill="#90C1D7"/>
<path d="M32.6484 61.8516H29.3672C28.2361 61.8516 27.3164 62.7712 27.3164 63.9023V67.1836C27.3164 68.3147 28.2361 69.2344 29.3672 69.2344H32.6484C33.7796 69.2344 34.6992 68.3147 34.6992 67.1836V63.9023C34.6992 62.7712 33.7796 61.8516 32.6484 61.8516ZM32.2383 66.7734H29.7773V64.3125H32.2383V66.7734Z" fill="#90C1D7"/>
<path d="M50.6953 44.9531V34.125C50.6953 31.6371 48.6714 29.6133 46.1836 29.6133H35.5195C33.0317 29.6133 31.0078 31.6371 31.0078 34.125V44.9531C31.0078 47.441 33.0317 49.4648 35.5195 49.4648H46.1836C48.6714 49.4648 50.6953 47.441 50.6953 44.9531ZM48.2344 44.9531C48.2344 46.0843 47.3147 47.0039 46.1836 47.0039H35.5195C34.3884 47.0039 33.4688 46.0843 33.4688 44.9531V34.125C33.4688 32.9939 34.3884 32.0742 35.5195 32.0742H46.1836C47.3147 32.0742 48.2344 32.9939 48.2344 34.125V44.9531Z" fill="#90C1D7"/>
</g>
<defs>
<filter id="filter0_d" x="-4" y="0" width="92" height="92" filterUnits="userSpaceOnUse" color-interpolation-filters="sRGB">
<feFlood flood-opacity="0" result="BackgroundImageFix"/>
<feColorMatrix in="SourceAlpha" type="matrix" values="0 0 0 0 0 0 0 0 0 0 0 0 0 0 0 0 0 0 127 0"/>
<feOffset dy="4"/>
<feGaussianBlur stdDeviation="2"/>
<feColorMatrix type="matrix" values="0 0 0 0 0.597708 0 0 0 0 0.844312 0 0 0 0 0.95 0 0 0 1 0"/>
<feBlend mode="normal" in2="BackgroundImageFix" result="effect1_dropShadow"/>
<feBlend mode="normal" in="SourceGraphic" in2="effect1_dropShadow" result="shape"/>
</filter>
</defs>
</svg>
