<?xml version="1.0" encoding="UTF-8" standalone="no"?><!-- Generator: Gravit.io --><svg xmlns="http://www.w3.org/2000/svg" xmlns:xlink="http://www.w3.org/1999/xlink" style="isolation:isolate" viewBox="0 0 250 250" width="250pt" height="250pt"><defs><clipPath id="_clipPath_oXoDZj5rotJmPxKiLztEH8iIFPX1RCN5"><rect width="250" height="250"/></clipPath></defs><g clip-path="url(#_clipPath_oXoDZj5rotJmPxKiLztEH8iIFPX1RCN5)"><g><path d=" M 250 53 L 250 217.5 C 250 235.437 235.437 250 217.5 250 L 32.5 250 C 14.563 250 0 235.437 0 217.5 L 0 53 L 250 53 L 250 53 Z " fill="rgb(232,235,247)"/><path d="M 100.252 165 L 227.748 165 C 233.406 165 238 168.137 238 172 L 238 172 C 238 175.863 233.406 179 227.748 179 L 100.252 179 C 94.594 179 90 175.863 90 172 L 90 172 C 90 168.137 94.594 165 100.252 165 Z" style="stroke:none;fill:#A2A2A2;stroke-miterlimit:10;"/><path d="M 176 125 L 231 125 C 234.863 125 238 128.137 238 132 L 238 132 C 238 135.863 234.863 139 231 139 L 176 139 C 172.137 139 169 135.863 169 132 L 169 132 C 169 128.137 172.137 125 176 125 Z" style="stroke:none;fill:#A2A2A2;stroke-miterlimit:10;"/><path d=" M 250 53 L 250 32.5 C 250 14.563 235.437 0 217.5 0 L 32.5 0 C 14.563 0 0 14.563 0 32.5 L 0 53 L 250 53 L 250 53 Z " fill="rgb(94,94,102)"/><circle vector-effect="non-scaling-stroke" cx="217.50000000000003" cy="26.5" r="7.75" fill="rgb(255,118,118)"/><path d="M 18.763 84 L 151.238 84 C 155.522 84 159 87.478 159 91.763 L 159 143.738 C 159 148.022 155.522 151.5 151.238 151.5 L 18.763 151.5 C 14.478 151.5 11 148.022 11 143.738 L 11 91.763 C 11 87.478 14.478 84 18.763 84 Z" style="stroke:none;fill:#75AAFF;stroke-miterlimit:10;"/><path d="M 176 84 L 231 84 C 234.863 84 238 87.137 238 91 L 238 91 C 238 94.863 234.863 98 231 98 L 176 98 C 172.137 98 169 94.863 169 91 L 169 91 C 169 87.137 172.137 84 176 84 Z" style="stroke:none;fill:#A2A2A2;stroke-miterlimit:10;"/><path d="M 176 103.75 L 231 103.75 C 234.863 103.75 238 106.887 238 110.75 L 238 110.75 C 238 114.613 234.863 117.75 231 117.75 L 176 117.75 C 172.137 117.75 169 114.613 169 110.75 L 169 110.75 C 169 106.887 172.137 103.75 176 103.75 Z" style="stroke:none;fill:#A2A2A2;stroke-miterlimit:10;"/><path d="M 18 165 L 73 165 C 76.863 165 80 168.137 80 172 L 80 172 C 80 175.863 76.863 179 73 179 L 18 179 C 14.137 179 11 175.863 11 172 L 11 172 C 11 168.137 14.137 165 18 165 Z" style="stroke:none;fill:#A2A2A2;stroke-miterlimit:10;"/><path d="M 176 187 L 231 187 C 234.863 187 238 190.137 238 194 L 238 194 C 238 197.863 234.863 201 231 201 L 176 201 C 172.137 201 169 197.863 169 194 L 169 194 C 169 190.137 172.137 187 176 187 Z" style="stroke:none;fill:#A2A2A2;stroke-miterlimit:10;"/><path d="M 21.252 187 L 148.748 187 C 154.406 187 159 190.137 159 194 L 159 194 C 159 197.863 154.406 201 148.748 201 L 21.252 201 C 15.594 201 11 197.863 11 194 L 11 194 C 11 190.137 15.594 187 21.252 187 Z" style="stroke:none;fill:#A2A2A2;stroke-miterlimit:10;"/><path d="M 61.252 210.5 L 188.748 210.5 C 194.406 210.5 199 213.637 199 217.5 L 199 217.5 C 199 221.363 194.406 224.5 188.748 224.5 L 61.252 224.5 C 55.594 224.5 51 221.363 51 217.5 L 51 217.5 C 51 213.637 55.594 210.5 61.252 210.5 Z" style="stroke:none;fill:#A2A2A2;stroke-miterlimit:10;"/></g><g><path d=" M 239.375 241.543 C 245.898 235.588 250 227.019 250 217.5 L 250 53 L 250 53 L 50.241 53 L 239.375 241.543 L 239.375 241.543 Z " fill="rgb(241,241,242)"/><path d=" M 176.636 179 L 227.748 179 C 233.406 179 238 175.863 238 172 L 238 172 C 238 168.137 233.406 165 227.748 165 L 162.592 165 L 176.636 179 L 176.636 179 Z " fill="rgb(206,206,206)"/><path d="M 176 125 L 231 125 C 234.863 125 238 128.137 238 132 L 238 132 C 238 135.863 234.863 139 231 139 L 176 139 C 172.137 139 169 135.863 169 132 L 169 132 C 169 128.137 172.137 125 176 125 Z" style="stroke:none;fill:#CECECE;stroke-miterlimit:10;"/><path d=" M 50.241 53 L 250 53 L 250 53 L 250 32.5 C 250 14.563 235.437 0 217.5 0 L 32.5 0 C 22.796 0 14.08 4.262 8.129 11.019 L 50.241 53 L 50.241 53 Z " fill="rgb(111,111,123)"/><circle vector-effect="non-scaling-stroke" cx="217.50000000000003" cy="26.5" r="7.75" fill="rgb(255,118,118)"/><circle vector-effect="non-scaling-stroke" cx="193.92123824451411" cy="26.5" r="7.75" fill="rgb(109,210,109)"/><path d=" M 149.05 151.5 L 151.238 151.5 C 155.522 151.5 159 148.022 159 143.738 L 159 91.763 C 159 87.478 155.522 84 151.238 84 L 81.339 84 L 149.05 151.5 L 149.05 151.5 Z " fill="rgb(156,194,255)"/><path d="M 176 84 L 231 84 C 234.863 84 238 87.137 238 91 L 238 91 C 238 94.863 234.863 98 231 98 L 176 98 C 172.137 98 169 94.863 169 91 L 169 91 C 169 87.137 172.137 84 176 84 Z" style="stroke:none;fill:#CECECE;stroke-miterlimit:10;"/><path d="M 176 103.75 L 231 103.75 C 234.863 103.75 238 106.887 238 110.75 L 238 110.75 C 238 114.613 234.863 117.75 231 117.75 L 176 117.75 C 172.137 117.75 169 114.613 169 110.75 L 169 110.75 C 169 106.887 172.137 103.75 176 103.75 Z" style="stroke:none;fill:#CECECE;stroke-miterlimit:10;"/><path d=" M 198.705 201 L 231 201 C 234.863 201 238 197.863 238 194 L 238 194 C 238 190.137 234.863 187 231 187 L 184.661 187 L 198.705 201 L 198.705 201 Z " fill="rgb(206,206,206)"/></g></g></svg>